<svg xmlns="http://www.w3.org/2000/svg" viewBox="0 0 420 900" width="420" height="900" font-family="-apple-system, BlinkMacSystemFont, &quot;SF Pro Text&quot;, &quot;Helvetica Neue&quot;, sans-serif" font-variant-numeric="tabular-nums">
<title>Chef display on a phone — tickets in New, Preparing and Ready with a timer on each</title>
<rect x="0" y="0" width="420" height="900" fill="#FFFFFF"/>
<text x="16" y="34" font-size="17" font-weight="700" fill="#16161D">Chef display — Al Sadd</text>
<text x="404" y="34" font-size="15" font-weight="700" fill="#62626E" text-anchor="end">18:44</text>
<rect x="16" y="58" width="388" height="256" rx="26" fill="#F2F2F6"/>
<text x="32" y="88" font-size="16" font-weight="700" fill="#5B3FE0">New</text>
<circle cx="374" cy="82" r="13" fill="#EEEAFD"/>
<text x="374" y="87" font-size="12.5" font-weight="700" fill="#5B3FE0" text-anchor="middle">2</text>
<rect x="32" y="104" width="356" height="92" rx="16" fill="#FFFFFF"/>
<rect x="32" y="104" width="5" height="92" rx="2.5" fill="#5B3FE0"/>
<text x="52" y="134" font-size="18" font-weight="700" fill="#16161D">T4</text>
<rect x="336.85" y="116" width="37.15" height="22" rx="11" fill="#EEEAFD"/>
<text x="355.43" y="131.44" font-size="12.5" font-weight="700" fill="#5B3FE0" text-anchor="middle">2m</text>
<text x="52" y="156" font-size="14" font-weight="600" fill="#16161D">2 × Wagyu slider</text>
<text x="52" y="180" font-size="14" font-weight="600" fill="#16161D">1 × Truffle fries</text>
<rect x="32" y="206" width="356" height="92" rx="16" fill="#FFFFFF"/>
<rect x="32" y="206" width="5" height="92" rx="2.5" fill="#5B3FE0"/>
<text x="52" y="236" font-size="18" font-weight="700" fill="#16161D">T12</text>
<rect x="336.85" y="218" width="37.15" height="22" rx="11" fill="#EEEAFD"/>
<text x="355.43" y="233.44" font-size="12.5" font-weight="700" fill="#5B3FE0" text-anchor="middle">1m</text>
<text x="52" y="258" font-size="14" font-weight="600" fill="#16161D">1 × Burrata</text>
<text x="52" y="282" font-size="14" font-weight="600" fill="#16161D">2 × Calamari</text>
<rect x="16" y="328" width="388" height="232" rx="26" fill="#F2F2F6"/>
<text x="32" y="358" font-size="16" font-weight="700" fill="#B45309">Preparing</text>
<circle cx="374" cy="352" r="13" fill="#FFF0E6"/>
<text x="374" y="357" font-size="12.5" font-weight="700" fill="#B45309" text-anchor="middle">2</text>
<rect x="32" y="374" width="356" height="92" rx="16" fill="#FFFFFF"/>
<rect x="32" y="374" width="5" height="92" rx="2.5" fill="#B45309"/>
<text x="52" y="404" font-size="18" font-weight="700" fill="#16161D">T1</text>
<rect x="329.35" y="386" width="44.65" height="22" rx="11" fill="#FFF0E6"/>
<text x="351.67" y="401.44" font-size="12.5" font-weight="700" fill="#B45309" text-anchor="middle">11m</text>
<text x="52" y="426" font-size="14" font-weight="600" fill="#16161D">1 × Ribeye — medium</text>
<text x="52" y="450" font-size="14" font-weight="600" fill="#16161D">1 × Sea bass</text>
<rect x="32" y="476" width="356" height="68" rx="16" fill="#FFFFFF"/>
<rect x="32" y="476" width="5" height="68" rx="2.5" fill="#B45309"/>
<text x="52" y="506" font-size="18" font-weight="700" fill="#16161D">T7</text>
<rect x="336.85" y="488" width="37.15" height="22" rx="11" fill="#FFF0E6"/>
<text x="355.43" y="503.44" font-size="12.5" font-weight="700" fill="#B45309" text-anchor="middle">8m</text>
<text x="52" y="528" font-size="14" font-weight="600" fill="#16161D">4 × Lamb chops</text>
<rect x="16" y="574" width="388" height="154" rx="26" fill="#F2F2F6"/>
<text x="32" y="604" font-size="16" font-weight="700" fill="#17663A">Ready</text>
<circle cx="374" cy="598" r="13" fill="#DDF3E4"/>
<text x="374" y="603" font-size="12.5" font-weight="700" fill="#17663A" text-anchor="middle">1</text>
<rect x="32" y="620" width="356" height="92" rx="16" fill="#FFFFFF"/>
<rect x="32" y="620" width="5" height="92" rx="2.5" fill="#17663A"/>
<text x="52" y="650" font-size="18" font-weight="700" fill="#16161D">T9</text>
<rect x="329.35" y="632" width="44.65" height="22" rx="11" fill="#DDF3E4"/>
<text x="351.67" y="647.44" font-size="12.5" font-weight="700" fill="#17663A" text-anchor="middle">16m</text>
<text x="52" y="672" font-size="14" font-weight="600" fill="#16161D">2 × Caesar</text>
<text x="52" y="696" font-size="14" font-weight="600" fill="#16161D">1 × Soup</text>
<text x="210" y="884" font-size="10.5" fill="#62626E" text-anchor="middle">The clock on each ticket is the one the guest is feeling.</text>
</svg>
