<svg xmlns="http://www.w3.org/2000/svg" viewBox="0 0 1200 800" width="1200" height="800" font-family="Inter, system-ui, -apple-system, Segoe UI, sans-serif">
<title>Customer Service inbox with the West Walk cold-dish case open: the guest cases by channel, branch and state, what was done, the draft reply awaiting approval, and a 24-hour answer ring showing six hours left.</title>
<rect width="1200" height="800" fill="#0F172A"/>
<text x="30" y="46" font-size="23" font-weight="800" fill="#F8FAFC">Customer Service — all branches · September</text>
<text x="1170" y="46" font-size="15" fill="#94A3B8" text-anchor="end">7 open · 3 waiting · one answer due in 6h</text>
<rect x="24" y="66" width="1152" height="2" fill="#1E293B"/>
<rect x="24" y="90" width="96" height="31" rx="15.5" fill="#E0A130"/>
<text x="72" y="111" font-size="13.5" font-weight="700" fill="#0F172A" text-anchor="middle">All · 12</text>
<rect x="130" y="90" width="96" height="31" rx="15.5" fill="rgba(255,255,255,0.07)"/>
<text x="178" y="111" font-size="13.5" font-weight="700" fill="#94A3B8" text-anchor="middle">Open · 7</text>
<rect x="236" y="90" width="112" height="31" rx="15.5" fill="rgba(255,255,255,0.07)"/>
<text x="292" y="111" font-size="13.5" font-weight="700" fill="#94A3B8" text-anchor="middle">Waiting · 3</text>
<rect x="358" y="90" width="106" height="31" rx="15.5" fill="rgba(255,255,255,0.07)"/>
<text x="411" y="111" font-size="13.5" font-weight="700" fill="#94A3B8" text-anchor="middle">Closed · 2</text>
<rect x="24" y="136" width="616" height="484" rx="14" fill="rgba(255,255,255,0.045)" stroke="rgba(255,255,255,0.08)"/>
<rect x="40" y="152" width="584" height="78" rx="10" fill="rgba(224,161,48,0.10)" stroke="rgba(224,161,48,0.45)"/>
<rect x="56" y="180" width="66" height="22" rx="11" fill="rgba(255,255,255,0.07)"/>
<text x="89" y="195" font-size="11" font-weight="700" fill="#CBD5E1" text-anchor="middle">Google</text>
<text x="138" y="186" font-size="14" font-weight="600" fill="#E2E8F0">Noor Al-Mansoori — cold dish, table 12</text>
<text x="138" y="208" font-size="12" fill="#64748B">West Walk · opened 18h ago</text>
<rect x="536" y="180" width="72" height="22" rx="11" fill="#FBBF24" fill-opacity="0.18" stroke="#FBBF24" stroke-opacity="0.5"/>
<text x="572" y="195" font-size="11" font-weight="700" fill="#FBBF24" text-anchor="middle">Open</text>
<rect x="40" y="242" width="584" height="78" rx="10" fill="rgba(255,255,255,0.03)"/>
<rect x="56" y="270" width="66" height="22" rx="11" fill="rgba(255,255,255,0.07)"/>
<text x="89" y="285" font-size="11" font-weight="700" fill="#CBD5E1" text-anchor="middle">Call</text>
<text x="138" y="276" font-size="14" font-weight="600" fill="#E2E8F0">Khalid Al-Kuwari — booking for 8 not found</text>
<text x="138" y="298" font-size="12" fill="#64748B">Al Sadd · opened 2h ago</text>
<rect x="536" y="270" width="72" height="22" rx="11" fill="#FBBF24" fill-opacity="0.18" stroke="#FBBF24" stroke-opacity="0.5"/>
<text x="572" y="285" font-size="11" font-weight="700" fill="#FBBF24" text-anchor="middle">Open</text>
<rect x="40" y="332" width="584" height="78" rx="10" fill="rgba(255,255,255,0.03)"/>
<rect x="56" y="360" width="66" height="22" rx="11" fill="rgba(255,255,255,0.07)"/>
<text x="89" y="375" font-size="11" font-weight="700" fill="#CBD5E1" text-anchor="middle">App</text>
<text x="138" y="366" font-size="14" font-weight="600" fill="#E2E8F0">Sarah Mathew — Sumac order missing the dessert</text>
<text x="138" y="388" font-size="12" fill="#64748B">Vendome Mall · waiting on guest 5h</text>
<rect x="536" y="360" width="72" height="22" rx="11" fill="#38BDF8" fill-opacity="0.18" stroke="#38BDF8" stroke-opacity="0.5"/>
<text x="572" y="375" font-size="11" font-weight="700" fill="#38BDF8" text-anchor="middle">Waiting</text>
<rect x="40" y="422" width="584" height="78" rx="10" fill="rgba(255,255,255,0.03)"/>
<rect x="56" y="450" width="66" height="22" rx="11" fill="rgba(255,255,255,0.07)"/>
<text x="89" y="465" font-size="11" font-weight="700" fill="#CBD5E1" text-anchor="middle">Google</text>
<text x="138" y="456" font-size="14" font-weight="600" fill="#E2E8F0">Ahmed Farouk — 5★, asks about private dining</text>
<text x="138" y="478" font-size="12" fill="#64748B">Old Port · waiting on guest 1d</text>
<rect x="536" y="450" width="72" height="22" rx="11" fill="#38BDF8" fill-opacity="0.18" stroke="#38BDF8" stroke-opacity="0.5"/>
<text x="572" y="465" font-size="11" font-weight="700" fill="#38BDF8" text-anchor="middle">Waiting</text>
<rect x="40" y="512" width="584" height="78" rx="10" fill="rgba(255,255,255,0.03)"/>
<rect x="56" y="540" width="66" height="22" rx="11" fill="rgba(255,255,255,0.07)"/>
<text x="89" y="555" font-size="11" font-weight="700" fill="#CBD5E1" text-anchor="middle">App</text>
<text x="138" y="546" font-size="14" font-weight="600" fill="#E2E8F0">Deepak Shrestha — charged twice, QR 86 refunded</text>
<text x="138" y="568" font-size="12" fill="#64748B">West Bay · closed 3h ago by Joy V.</text>
<rect x="536" y="540" width="72" height="22" rx="11" fill="#34D399" fill-opacity="0.18" stroke="#34D399" stroke-opacity="0.5"/>
<text x="572" y="555" font-size="11" font-weight="700" fill="#34D399" text-anchor="middle">Closed</text>
<text x="608" y="609" font-size="11.5" fill="#64748B" text-anchor="end">7 more below</text>
<rect x="24" y="640" width="616" height="116" rx="14" fill="rgba(255,255,255,0.045)" stroke="rgba(255,255,255,0.08)"/>
<text x="44" y="668" font-size="11" font-weight="700" fill="#94A3B8" letter-spacing="1.4">REVIEWS THIS WEEK</text>
<text x="44" y="714" font-size="36" font-weight="800" fill="#E8CE7A">4.7 ★</text>
<text x="44" y="740" font-size="12.5" fill="#64748B">38 reviews · Google 26 · app 12 · last week 4.5</text>
<rect x="430" y="680" width="190" height="36" rx="18" fill="#FBBF24" fill-opacity="0.14" stroke="#FBBF24" stroke-opacity="0.45"/>
<text x="525" y="703" font-size="13.5" font-weight="700" fill="#FBBF24" text-anchor="middle">2 need a reply</text>
<rect x="660" y="90" width="516" height="666" rx="14" fill="rgba(255,255,255,0.045)" stroke="rgba(255,255,255,0.08)"/>
<text x="684" y="120" font-size="11" font-weight="700" fill="#94A3B8" letter-spacing="1.4">CASE C-0412 · GOOGLE REVIEW 2★</text>
<text x="684" y="152" font-size="20" font-weight="800" fill="#F8FAFC">Cold dish at West Walk</text>
<text x="684" y="176" font-size="12.5" fill="#94A3B8">Noor Al-Mansoori · dined Sat 5 Sept 19:40 · table 12</text>
<text x="1096" y="118" font-size="11" font-weight="700" fill="#94A3B8" letter-spacing="1.4" text-anchor="middle">ANSWER WITHIN 24H</text>
<circle cx="1096" cy="176" r="38" fill="none" stroke="rgba(255,255,255,0.08)" stroke-width="9"/>
<circle cx="1096" cy="176" r="38" fill="none" stroke="#34D399" stroke-width="9" stroke-linecap="round" stroke-dasharray="60 180" transform="rotate(-90 1096 176)"/>
<text x="1096" y="185" font-size="26" font-weight="800" fill="#34D399" text-anchor="middle">6h</text>
<text x="1096" y="240" font-size="11.5" fill="#64748B" text-anchor="middle">left · due today 21:14</text>
<rect x="684" y="266" width="3" height="46" rx="1.5" fill="#E8CE7A"/>
<text x="700" y="284" font-size="13.5" font-style="italic" fill="#CBD5E1">“The lamb kabsa arrived cold and nobody came to check on us.</text>
<text x="700" y="306" font-size="13.5" font-style="italic" fill="#CBD5E1">Everything else was lovely.” <tspan font-style="normal" fill="#64748B">— Google, Sat 21:14</tspan></text>
<text x="684" y="350" font-size="11" font-weight="700" fill="#94A3B8" letter-spacing="1.4">WHAT WAS DONE</text>
<rect x="692" y="372" width="2" height="132" fill="rgba(255,255,255,0.1)"/>
<circle cx="693" cy="383" r="5" fill="#34D399"/>
<text x="712" y="388" font-size="13.5" fill="#E2E8F0"><tspan font-size="12" fill="#64748B">Sat 21:30</tspan><tspan x="786">Called the guest — Priya Nair apologised, 6 min</tspan></text>
<circle cx="693" cy="421" r="5" fill="#34D399"/>
<text x="712" y="426" font-size="13.5" fill="#E2E8F0"><tspan font-size="12" fill="#64748B">Sat 21:45</tspan><tspan x="786">Comped dessert — QR 48 voucher sent to her app</tspan></text>
<circle cx="693" cy="459" r="5" fill="#34D399"/>
<text x="712" y="464" font-size="13.5" fill="#E2E8F0"><tspan font-size="12" fill="#64748B">Sun 09:10</tspan><tspan x="786">Kitchen briefed — Ramesh P. added a pass temp check</tspan></text>
<circle cx="693" cy="497" r="5" fill="#0F172A" stroke="#E8CE7A" stroke-width="2"/>
<text x="712" y="502" font-size="13.5" fill="#E8CE7A"><tspan font-size="12" font-weight="700">Now</tspan><tspan x="786">Reply on Google — draft ready, awaiting your OK</tspan></text>
<text x="684" y="532" font-size="11" font-weight="700" fill="#94A3B8" letter-spacing="1.4">DRAFT REPLY · POSTS ON GOOGLE AS WEST WALK</text>
<rect x="684" y="544" width="472" height="76" rx="10" fill="rgba(255,255,255,0.03)" stroke="rgba(255,255,255,0.08)"/>
<text x="700" y="567" font-size="12.5" fill="#E2E8F0">Thank you, Noor — the kabsa should never have reached you cold.</text>
<text x="700" y="586" font-size="12.5" fill="#E2E8F0">A pass temperature check is now in place, and your next dessert</text>
<text x="700" y="605" font-size="12.5" fill="#E2E8F0">at West Walk is on us. We hope to see you again soon. — Priya</text>
<rect x="684" y="636" width="472" height="40" rx="10" fill="#E0A130"/>
<text x="920" y="661" font-size="13.5" font-weight="700" fill="#0F172A" text-anchor="middle">Post the reply</text>
<rect x="684" y="698" width="472" height="1" fill="rgba(255,255,255,0.1)"/>
<text x="684" y="724" font-size="11" font-weight="700" fill="#94A3B8" letter-spacing="1.4">GUEST MEMORY</text>
<text x="684" y="746" font-size="13.5" fill="#CBD5E1">6 visits · West Walk regular · QR 2,840 lifetime · first complaint</text>
<text x="24" y="784" font-size="12.5" fill="#64748B">The comp already sits in the day close; the review feeds West Walk's analysis tonight.</text>
</svg>
