<svg xmlns="http://www.w3.org/2000/svg" viewBox="0 0 1200 900" width="1200" height="900" font-family="Inter, system-ui, -apple-system, Segoe UI, sans-serif">
<rect width="1200" height="900" fill="#0F172A"/>
<text x="30" y="46" font-size="23" font-weight="800" fill="#F8FAFC">Food cost — Al Sadd · September</text>
<text x="1170" y="46" font-size="15" fill="#94A3B8" text-anchor="end">theoretical vs actual</text>
<rect x="24" y="66" width="1152" height="2" fill="#1E293B"/>
<rect x="24" y="90" width="272" height="116" rx="14" fill="rgba(255,255,255,0.045)" stroke="rgba(255,255,255,0.08)"/>
<text x="44" y="118" font-size="11" font-weight="700" fill="#94A3B8" letter-spacing="1.4">THEORETICAL</text>
<text x="44" y="164" font-size="36" font-weight="800" fill="#4A80BC">29.4%</text>
<text x="44" y="188" font-size="12.5" fill="#64748B">what the recipes say it should cost</text>
<rect x="312" y="90" width="272" height="116" rx="14" fill="rgba(255,255,255,0.045)" stroke="rgba(255,255,255,0.08)"/>
<text x="332" y="118" font-size="11" font-weight="700" fill="#94A3B8" letter-spacing="1.4">ACTUAL</text>
<text x="332" y="164" font-size="36" font-weight="800" fill="#E0A130">32.1%</text>
<text x="332" y="188" font-size="12.5" fill="#64748B">what the shelves say it did cost</text>
<rect x="600" y="90" width="272" height="116" rx="14" fill="rgba(255,255,255,0.045)" stroke="rgba(255,255,255,0.08)"/>
<text x="620" y="118" font-size="11" font-weight="700" fill="#94A3B8" letter-spacing="1.4">THE GAP</text>
<text x="620" y="164" font-size="36" font-weight="800" fill="#FB7185">+2.7 pts</text>
<text x="620" y="188" font-size="12.5" fill="#64748B">QR 12,840 this month</text>
<rect x="888" y="90" width="272" height="116" rx="14" fill="rgba(255,255,255,0.045)" stroke="rgba(255,255,255,0.08)"/>
<text x="908" y="118" font-size="11" font-weight="700" fill="#94A3B8" letter-spacing="1.4">RECIPE COVERAGE</text>
<text x="908" y="164" font-size="36" font-weight="800" fill="#34D399">87%</text>
<text x="908" y="188" font-size="12.5" fill="#64748B">349 of 399 dishes costed</text>
<rect x="24" y="228" width="700" height="436" rx="14" fill="rgba(255,255,255,0.045)" stroke="rgba(255,255,255,0.08)"/>
<text x="46" y="258" font-size="12" font-weight="700" fill="#94A3B8" letter-spacing="1.4">BY CATEGORY · % OF SALES</text>
<rect x="500" y="248" width="11" height="11" rx="3" fill="#4A80BC"/>
<text x="517" y="258" font-size="12" fill="#CBD5E1">Theoretical</text>
<rect x="620" y="248" width="11" height="11" rx="3" fill="#E0A130"/>
<text x="637" y="258" font-size="12" fill="#CBD5E1">Actual</text>
<rect x="70" y="612" width="630" height="1" fill="rgba(255,255,255,0.06)"/>
<text x="60" y="616" font-size="11" fill="#64748B" text-anchor="end">0%</text>
<rect x="70" y="537" width="630" height="1" fill="rgba(255,255,255,0.06)"/>
<text x="60" y="541" font-size="11" fill="#64748B" text-anchor="end">10%</text>
<rect x="70" y="462" width="630" height="1" fill="rgba(255,255,255,0.06)"/>
<text x="60" y="466" font-size="11" fill="#64748B" text-anchor="end">20%</text>
<rect x="70" y="387" width="630" height="1" fill="rgba(255,255,255,0.06)"/>
<text x="60" y="391" font-size="11" fill="#64748B" text-anchor="end">30%</text>
<rect x="70" y="312" width="630" height="1" fill="rgba(255,255,255,0.06)"/>
<text x="60" y="316" font-size="11" fill="#64748B" text-anchor="end">40%</text>
<rect x="95" y="378" width="34" height="234" rx="4" fill="#4A80BC"/>
<text x="112" y="370" font-size="11.5" font-weight="700" fill="#4A80BC" text-anchor="middle">31.2</text>
<rect x="137" y="358" width="34" height="253" rx="4" fill="#E0A130"/>
<text x="154" y="350" font-size="11.5" font-weight="700" fill="#E0A130" text-anchor="middle">33.8</text>
<text x="133" y="636" font-size="12.5" font-weight="600" fill="#CBD5E1" text-anchor="middle">Meat</text>
<rect x="221" y="398" width="34" height="214" rx="4" fill="#4A80BC"/>
<text x="238" y="390" font-size="11.5" font-weight="700" fill="#4A80BC" text-anchor="middle">28.5</text>
<rect x="263" y="349" width="34" height="263" rx="4" fill="#E0A130"/>
<text x="280" y="341" font-size="11.5" font-weight="700" fill="#E0A130" text-anchor="middle">35.1</text>
<text x="259" y="636" font-size="12.5" font-weight="600" fill="#CBD5E1" text-anchor="middle">Seafood</text>
<rect x="213" y="313" width="92" height="22" rx="11" fill="#F43F5E" fill-opacity="0.18" stroke="#F43F5E" stroke-opacity="0.5"/>
<text x="259" y="328" font-size="11.5" font-weight="800" fill="#FB7185" text-anchor="middle">+6.6 pts</text>
<rect x="347" y="432" width="34" height="180" rx="4" fill="#4A80BC"/>
<text x="364" y="424" font-size="11.5" font-weight="700" fill="#4A80BC" text-anchor="middle">24.0</text>
<rect x="389" y="428" width="34" height="184" rx="4" fill="#E0A130"/>
<text x="406" y="420" font-size="11.5" font-weight="700" fill="#E0A130" text-anchor="middle">24.6</text>
<text x="385" y="636" font-size="12.5" font-weight="600" fill="#CBD5E1" text-anchor="middle">Dairy</text>
<rect x="473" y="441" width="34" height="171" rx="4" fill="#4A80BC"/>
<text x="490" y="433" font-size="11.5" font-weight="700" fill="#4A80BC" text-anchor="middle">22.8</text>
<rect x="515" y="436" width="34" height="176" rx="4" fill="#E0A130"/>
<text x="532" y="428" font-size="11.5" font-weight="700" fill="#E0A130" text-anchor="middle">23.5</text>
<text x="511" y="636" font-size="12.5" font-weight="600" fill="#CBD5E1" text-anchor="middle">Produce</text>
<rect x="599" y="474" width="34" height="138" rx="4" fill="#4A80BC"/>
<text x="616" y="466" font-size="11.5" font-weight="700" fill="#4A80BC" text-anchor="middle">18.4</text>
<rect x="641" y="470" width="34" height="142" rx="4" fill="#E0A130"/>
<text x="658" y="462" font-size="11.5" font-weight="700" fill="#E0A130" text-anchor="middle">18.9</text>
<text x="637" y="636" font-size="12.5" font-weight="600" fill="#CBD5E1" text-anchor="middle">Dry goods</text>
<rect x="740" y="228" width="436" height="436" rx="14" fill="rgba(255,255,255,0.045)" stroke="rgba(255,255,255,0.08)"/>
<text x="762" y="258" font-size="12" font-weight="700" fill="#94A3B8" letter-spacing="1.4">WHERE THE GAP IS</text>
<text x="762" y="290" font-size="11" fill="#64748B">INGREDIENT</text>
<text x="1010" y="290" font-size="11" fill="#64748B" text-anchor="end">SHORT</text>
<text x="1152" y="290" font-size="11" fill="#64748B" text-anchor="end">VALUE</text>
<rect x="756" y="300" width="404" height="38" rx="9" fill="rgba(255,255,255,0.03)"/>
<text x="770" y="324" font-size="14" font-weight="600" fill="#E2E8F0">Salmon fillet</text>
<text x="1010" y="324" font-size="13.5" font-weight="700" fill="#FB7185" text-anchor="end">−18.4 kg</text>
<text x="1152" y="324" font-size="13.5" font-weight="700" fill="#FB7185" text-anchor="end">QR 4,120</text>
<rect x="756" y="346" width="404" height="38" rx="9" fill="rgba(255,255,255,0.03)"/>
<text x="770" y="370" font-size="14" font-weight="600" fill="#E2E8F0">Ribeye</text>
<text x="1010" y="370" font-size="13.5" font-weight="700" fill="#FB7185" text-anchor="end">−9.1 kg</text>
<text x="1152" y="370" font-size="13.5" font-weight="700" fill="#FB7185" text-anchor="end">QR 3,240</text>
<rect x="756" y="392" width="404" height="38" rx="9" fill="rgba(255,255,255,0.03)"/>
<text x="770" y="416" font-size="14" font-weight="600" fill="#E2E8F0">Butter</text>
<text x="1010" y="416" font-size="13.5" font-weight="700" fill="#FB7185" text-anchor="end">−22.0 kg</text>
<text x="1152" y="416" font-size="13.5" font-weight="700" fill="#FB7185" text-anchor="end">QR 1,880</text>
<rect x="756" y="438" width="404" height="38" rx="9" fill="rgba(255,255,255,0.03)"/>
<text x="770" y="462" font-size="14" font-weight="600" fill="#E2E8F0">Olive oil</text>
<text x="1010" y="462" font-size="13.5" font-weight="700" fill="#FBBF24" text-anchor="end">−7.5 L</text>
<text x="1152" y="462" font-size="13.5" font-weight="700" fill="#FBBF24" text-anchor="end">QR 940</text>
<rect x="756" y="484" width="404" height="38" rx="9" fill="rgba(255,255,255,0.03)"/>
<text x="770" y="508" font-size="14" font-weight="600" fill="#E2E8F0">Parmesan</text>
<text x="1010" y="508" font-size="13.5" font-weight="700" fill="#FBBF24" text-anchor="end">−3.2 kg</text>
<text x="1152" y="508" font-size="13.5" font-weight="700" fill="#FBBF24" text-anchor="end">QR 610</text>
<rect x="756" y="530" width="404" height="38" rx="9" fill="rgba(255,255,255,0.03)"/>
<text x="770" y="554" font-size="14" font-weight="600" fill="#E2E8F0">Saffron</text>
<text x="1010" y="554" font-size="13.5" font-weight="700" fill="#94A3B8" text-anchor="end">−12.0 g</text>
<text x="1152" y="554" font-size="13.5" font-weight="700" fill="#94A3B8" text-anchor="end">unknown</text>
<text x="762" y="622" font-size="11.5" fill="#64748B">Saffron has no price on file — the shortage is real,</text>
<text x="762" y="640" font-size="11.5" fill="#64748B">the money is <tspan fill="#E8CE7A" font-weight="700">unknown</tspan>. It is never shown as zero.</text>
<rect x="24" y="686" width="1152" height="94" rx="14" fill="#F59E0B" fill-opacity="0.1" stroke="#F59E0B" stroke-opacity="0.42"/>
<text x="48" y="718" font-size="15" font-weight="800" fill="#FBBF24">🚦 Blind spots — 50 dishes sold with no recipe</text>
<text x="48" y="744" font-size="13" fill="#CBD5E1">These are not counted as variance. A dish nobody has costed is an unknown, not a saving —</text>
<text x="48" y="764" font-size="13" fill="#CBD5E1">so it is quarantined here until someone writes the recipe. Tap any one to open its editor.</text>
<text x="1152" y="740" font-size="30" font-weight="800" fill="#FBBF24" text-anchor="end">50</text>
<text x="24" y="820" font-size="12.5" fill="#64748B">opening + arrived − sold (by recipe) − waste = expected  ·  the count says actual  ·  the difference is the gap</text>
</svg>