<svg xmlns="http://www.w3.org/2000/svg" viewBox="0 0 1200 800" width="1200" height="800" font-family="-apple-system, BlinkMacSystemFont, &quot;SF Pro Text&quot;, &quot;Helvetica Neue&quot;, sans-serif" font-variant-numeric="tabular-nums">
<title>IT — paired devices across seven branches, the pairing QR for a new waiter tablet, printer status and two PIN reset requests.</title>
<rect x="0" y="0" width="1200" height="800" fill="#FFFFFF"/>
<text x="28" y="54" font-size="24" font-weight="700" fill="#16161D">IT — Hardware &amp; access · All branches</text>
<text x="1172" y="54" font-size="14" fill="#62626E" text-anchor="end">Sun 6 Sept 2026 · 14:12 · Karim H. · IT</text>
<rect x="28" y="84" width="776" height="296" rx="26" fill="#F2F2F6"/>
<text x="48" y="114" font-size="17" font-weight="600" fill="#16161D">Paired devices · 41 across 7 branches</text>
<rect x="640.81" y="100" width="143.19" height="26" rx="13" fill="#FFFFFF"/>
<text x="712.4" y="117.26" font-size="12" font-weight="600" fill="#62626E" text-anchor="middle">1 flagged · 40 healthy</text>
<text x="54" y="149.26" font-size="12" font-weight="600" fill="#62626E">Device</text>
<text x="334" y="149.26" font-size="12" font-weight="600" fill="#62626E">Branch</text>
<text x="484" y="149.26" font-size="12" font-weight="600" fill="#62626E">Last seen</text>
<rect x="48" y="158" width="736" height="32" rx="16" fill="#FFFFFF"/>
<text x="60" y="178.62" font-size="13" font-weight="600" fill="#16161D">Till 01 · Juno</text>
<text x="334" y="178.62" font-size="13" fill="#62626E">Al Sadd</text>
<text x="484" y="178.62" font-size="13" fill="#62626E">2 min ago</text>
<rect x="712.14" y="164" width="59.86" height="20" rx="10" fill="#F2F2F6"/>
<text x="742.07" y="178.26" font-size="12" font-weight="600" fill="#16161D" text-anchor="middle">Revoke</text>
<rect x="48" y="193" width="736" height="32" rx="16" fill="#FFFFFF"/>
<text x="60" y="213.62" font-size="13" font-weight="600" fill="#16161D">Waiter tablet W-03</text>
<text x="334" y="213.62" font-size="13" fill="#62626E">West Walk</text>
<text x="484" y="213.62" font-size="13" fill="#62626E">just now</text>
<rect x="712.14" y="199" width="59.86" height="20" rx="10" fill="#F2F2F6"/>
<text x="742.07" y="213.26" font-size="12" font-weight="600" fill="#16161D" text-anchor="middle">Revoke</text>
<rect x="48" y="228" width="736" height="32" rx="16" fill="#FFFFFF"/>
<text x="60" y="248.62" font-size="13" font-weight="600" fill="#16161D">Chef display · Kitchen</text>
<text x="334" y="248.62" font-size="13" fill="#62626E">West Bay</text>
<text x="484" y="248.62" font-size="13" fill="#62626E">1 min ago</text>
<rect x="712.14" y="234" width="59.86" height="20" rx="10" fill="#F2F2F6"/>
<text x="742.07" y="248.26" font-size="12" font-weight="600" fill="#16161D" text-anchor="middle">Revoke</text>
<rect x="48" y="263" width="736" height="32" rx="16" fill="#FFFFFF"/>
<text x="60" y="283.62" font-size="13" font-weight="600" fill="#16161D">Hostess desk</text>
<text x="334" y="283.62" font-size="13" fill="#62626E">Vendome Mall</text>
<text x="484" y="283.62" font-size="13" fill="#62626E">6 min ago</text>
<rect x="712.14" y="269" width="59.86" height="20" rx="10" fill="#F2F2F6"/>
<text x="742.07" y="283.26" font-size="12" font-weight="600" fill="#16161D" text-anchor="middle">Revoke</text>
<rect x="48" y="298" width="736" height="32" rx="16" fill="#FFFFFF"/>
<text x="60" y="318.62" font-size="13" font-weight="600" fill="#16161D">Staff phone · Ramesh T.</text>
<text x="334" y="318.62" font-size="13" fill="#62626E">Old Port</text>
<text x="484" y="318.62" font-size="13" font-weight="600" fill="#9A3412">9 days ago</text>
<rect x="712.14" y="304" width="59.86" height="20" rx="10" fill="#F2F2F6"/>
<text x="742.07" y="318.26" font-size="12" font-weight="600" fill="#16161D" text-anchor="middle">Revoke</text>
<text x="48" y="357" font-size="12.5" fill="#62626E">Unseen 7 days → flagged. Revoke kills its key on the engine now; the phone is a stranger until paired again.</text>
<rect x="28" y="396" width="776" height="232" rx="26" fill="#F2F2F6"/>
<text x="48" y="426" font-size="17" font-weight="600" fill="#16161D">Printers · receipt + kitchen</text>
<rect x="678.31" y="412" width="105.69" height="26" rx="13" fill="#DDF3E4"/>
<text x="731.16" y="429.26" font-size="12" font-weight="700" fill="#17663A" text-anchor="middle">13 of 14 online</text>
<rect x="48" y="446" width="360" height="30" rx="16" fill="#FFFFFF"/>
<circle cx="66" cy="461" r="4" fill="#17663A"/>
<text x="80" y="465.62" font-size="13" font-weight="600" fill="#16161D">Al Sadd</text>
<rect x="48" y="479" width="360" height="30" rx="16" fill="#FFFFFF"/>
<circle cx="66" cy="494" r="4" fill="#17663A"/>
<text x="80" y="498.62" font-size="13" font-weight="600" fill="#16161D">West Walk</text>
<rect x="48" y="512" width="360" height="30" rx="16" fill="#FFFFFF"/>
<circle cx="66" cy="527" r="4" fill="#9A3412"/>
<text x="80" y="531.62" font-size="13" font-weight="600" fill="#16161D">West Bay</text>
<text x="396" y="531.26" font-size="12" font-weight="600" fill="#9A3412" text-anchor="end">kitchen · offline 12 min</text>
<rect x="48" y="545" width="360" height="30" rx="16" fill="#FFFFFF"/>
<circle cx="66" cy="560" r="4" fill="#17663A"/>
<text x="80" y="564.62" font-size="13" font-weight="600" fill="#16161D">Vendome Mall</text>
<rect x="424" y="446" width="360" height="30" rx="16" fill="#FFFFFF"/>
<circle cx="442" cy="461" r="4" fill="#17663A"/>
<text x="456" y="465.62" font-size="13" font-weight="600" fill="#16161D">Old Port</text>
<rect x="424" y="479" width="360" height="30" rx="16" fill="#FFFFFF"/>
<circle cx="442" cy="494" r="4" fill="#17663A"/>
<text x="456" y="498.62" font-size="13" font-weight="600" fill="#16161D">MOQ</text>
<rect x="424" y="512" width="360" height="30" rx="16" fill="#FFFFFF"/>
<circle cx="442" cy="527" r="4" fill="#17663A"/>
<text x="456" y="531.62" font-size="13" font-weight="600" fill="#16161D">DFC</text>
<text x="48" y="604" font-size="12.5" fill="#62626E">West Bay tickets queue on the chef display — nothing is lost.</text>
<rect x="820" y="84" width="352" height="244" rx="26" fill="#F2F2F6"/>
<text x="840" y="114" font-size="17" font-weight="600" fill="#16161D">Pairing QR · waiter tablet · West Walk</text>
<rect x="840" y="130" width="110" height="110" rx="16" fill="#FFFFFF"/>
<g fill="#16161D"><rect x="875.91" y="143" width="6.57" height="6.57" rx="1.53"/><rect x="891.18" y="143" width="6.57" height="6.57" rx="1.53"/><rect x="898.82" y="143" width="6.57" height="6.57" rx="1.53"/><rect x="898.82" y="150.64" width="6.57" height="6.57" rx="1.53"/><rect x="875.91" y="158.27" width="6.57" height="6.57" rx="1.53"/><rect x="891.18" y="158.27" width="6.57" height="6.57" rx="1.53"/><rect x="898.82" y="158.27" width="6.57" height="6.57" rx="1.53"/><rect x="906.45" y="158.27" width="6.57" height="6.57" rx="1.53"/><rect x="853" y="165.91" width="6.57" height="6.57" rx="1.53"/><rect x="891.18" y="165.91" width="6.57" height="6.57" rx="1.53"/><rect x="906.45" y="165.91" width="6.57" height="6.57" rx="1.53"/><rect x="921.73" y="165.91" width="6.57" height="6.57" rx="1.53"/><rect x="883.55" y="173.55" width="6.57" height="6.57" rx="1.53"/><rect x="891.18" y="173.55" width="6.57" height="6.57" rx="1.53"/><rect x="860.64" y="181.18" width="6.57" height="6.57" rx="1.53"/><rect x="868.27" y="181.18" width="6.57" height="6.57" rx="1.53"/><rect x="875.91" y="181.18" width="6.57" height="6.57" rx="1.53"/><rect x="891.18" y="181.18" width="6.57" height="6.57" rx="1.53"/><rect x="929.36" y="181.18" width="6.57" height="6.57" rx="1.53"/><rect x="853" y="188.82" width="6.57" height="6.57" rx="1.53"/><rect x="868.27" y="188.82" width="6.57" height="6.57" rx="1.53"/><rect x="875.91" y="188.82" width="6.57" height="6.57" rx="1.53"/><rect x="891.18" y="188.82" width="6.57" height="6.57" rx="1.53"/><rect x="898.82" y="188.82" width="6.57" height="6.57" rx="1.53"/><rect x="914.09" y="188.82" width="6.57" height="6.57" rx="1.53"/><rect x="929.36" y="188.82" width="6.57" height="6.57" rx="1.53"/><rect x="853" y="196.45" width="6.57" height="6.57" rx="1.53"/><rect x="860.64" y="196.45" width="6.57" height="6.57" rx="1.53"/><rect x="898.82" y="196.45" width="6.57" height="6.57" rx="1.53"/><rect x="906.45" y="196.45" width="6.57" height="6.57" rx="1.53"/><rect x="914.09" y="196.45" width="6.57" height="6.57" rx="1.53"/><rect x="929.36" y="196.45" width="6.57" height="6.57" rx="1.53"/><rect x="875.91" y="204.09" width="6.57" height="6.57" rx="1.53"/><rect x="891.18" y="204.09" width="6.57" height="6.57" rx="1.53"/><rect x="906.45" y="204.09" width="6.57" height="6.57" rx="1.53"/><rect x="914.09" y="204.09" width="6.57" height="6.57" rx="1.53"/><rect x="875.91" y="211.73" width="6.57" height="6.57" rx="1.53"/><rect x="898.82" y="211.73" width="6.57" height="6.57" rx="1.53"/><rect x="906.45" y="211.73" width="6.57" height="6.57" rx="1.53"/><rect x="875.91" y="219.36" width="6.57" height="6.57" rx="1.53"/><rect x="891.18" y="219.36" width="6.57" height="6.57" rx="1.53"/><rect x="906.45" y="219.36" width="6.57" height="6.57" rx="1.53"/><rect x="929.36" y="219.36" width="6.57" height="6.57" rx="1.53"/><rect x="853" y="143" width="20.62" height="20.62" rx="3.82" fill="none" stroke="#16161D" stroke-width="3.82"/><rect x="860.64" y="150.64" width="6.87" height="6.87" rx="1.53"/><rect x="914.09" y="143" width="20.62" height="20.62" rx="3.82" fill="none" stroke="#16161D" stroke-width="3.82"/><rect x="921.73" y="150.64" width="6.87" height="6.87" rx="1.53"/><rect x="853" y="204.09" width="20.62" height="20.62" rx="3.82" fill="none" stroke="#16161D" stroke-width="3.82"/><rect x="860.64" y="211.73" width="6.87" height="6.87" rx="1.53"/></g>
<text x="968" y="152" font-size="12" font-weight="600" fill="#62626E">Expires in</text>
<text x="968" y="186" font-size="28" font-weight="700" fill="#5B3FE0">8:42</text>
<text x="968" y="212" font-size="12.5" fill="#62626E">Scan from the new tablet.</text>
<text x="840" y="268" font-size="13" fill="#16161D">It joins West Walk as W-08 —</text>
<text x="840" y="288" font-size="13" fill="#16161D">a waiter tablet, nothing else.</text>
<rect x="820" y="344" width="352" height="284" rx="26" fill="#F2F2F6"/>
<text x="840" y="374" font-size="17" font-weight="600" fill="#16161D">PIN reset requests · 2 waiting</text>
<rect x="840" y="390" width="312" height="108" rx="16" fill="#FFFFFF"/>
<text x="856" y="416" font-size="13" font-weight="600" fill="#16161D">Priya Nair · Waiter · West Walk</text>
<text x="856" y="436" font-size="11.5" fill="#62626E">Forgot till PIN · asked 14:03 · vouched by</text>
<text x="856" y="452" font-size="11.5" fill="#62626E">Ahmed E., shift manager</text>
<rect x="856" y="462" width="80.56" height="28" rx="14" fill="#5B3FE0"/>
<text x="896.28" y="480.26" font-size="12" font-weight="600" fill="#FFFFFF" text-anchor="middle">Approve</text>
<rect x="940" y="462" width="60.44" height="28" rx="14" fill="#F2F2F6"/>
<text x="970.22" y="480.26" font-size="12" font-weight="600" fill="#16161D" text-anchor="middle">Deny</text>
<rect x="840" y="510" width="312" height="108" rx="16" fill="#FFFFFF"/>
<text x="856" y="536" font-size="13" font-weight="600" fill="#16161D">Dinesh Perera · Chef · Al Sadd</text>
<text x="856" y="556" font-size="11.5" fill="#62626E">Locked out after 5 wrong tries · asked 13:48 ·</text>
<text x="856" y="572" font-size="11.5" fill="#62626E">QID checked at HR</text>
<rect x="856" y="582" width="80.56" height="28" rx="14" fill="#5B3FE0"/>
<text x="896.28" y="600.26" font-size="12" font-weight="600" fill="#FFFFFF" text-anchor="middle">Approve</text>
<rect x="940" y="582" width="60.44" height="28" rx="14" fill="#F2F2F6"/>
<text x="970.22" y="600.26" font-size="12" font-weight="600" fill="#16161D" text-anchor="middle">Deny</text>
<text x="28" y="754" font-size="12.5" fill="#62626E">Revoke is immediate. Approve writes the reset to the audit log under your name — the PIN itself is never shown to IT.</text>
</svg>
