<svg xmlns="http://www.w3.org/2000/svg" viewBox="0 0 400 866" width="400" height="866" font-family="Inter, system-ui, -apple-system, Segoe UI, sans-serif">
<defs><linearGradient id="bar" x1="0" y1="0" x2="0" y2="1"><stop offset="0%" stop-color="#E8CE7A"/><stop offset="26%" stop-color="#C9A227"/><stop offset="100%" stop-color="#0A4174"/></linearGradient></defs>
<rect width="400" height="866" fill="#0F172A"/>
<text x="26" y="44" font-size="14" font-weight="700" fill="#F8FAFC">9:41</text>
<text x="374" y="44" font-size="12" fill="#94A3B8" text-anchor="end">▮▮▮ ▲ ▮▮▮</text>
<text x="26" y="92" font-size="22" font-weight="800" fill="#F8FAFC">Inbox</text>
<text x="26" y="114" font-size="12.5" fill="#94A3B8">Pulled out of last night's close</text>
<rect x="26" y="132" width="348" height="52" rx="15" fill="rgba(255,255,255,0.045)" stroke="rgba(255,255,255,0.075)"/>
<text x="44" y="164" font-size="13" font-weight="700" fill="#E2E8F0">3 shorts · 2 notes · 1 waiting</text>
<rect x="26" y="200" width="348" height="96" rx="15" fill="#F59E0B" fill-opacity="0.12" stroke="#F59E0B" stroke-opacity="0.45"/>
<text x="44" y="228" font-size="12.5" font-weight="800" fill="#FBBF24">⚠ SHORT · Al Sadd · Thursday close</text>
<text x="44" y="254" font-size="14" font-weight="700" fill="#F8FAFC">Drawer short</text>
<text x="356" y="254" font-size="17" font-weight="800" fill="#FBBF24" text-anchor="end">QR 120.00</text>
<text x="44" y="278" font-size="11.5" fill="#94A3B8">Counted by Rajesh K. · signed 01:14</text>
<rect x="26" y="316" width="348" height="58" rx="15" fill="rgba(255,255,255,0.045)" stroke="rgba(255,255,255,0.075)"/>
<text x="44" y="342" font-size="12.8" font-weight="600" fill="#E2E8F0">Petty cash — cleaning supplies</text>
<text x="356" y="342" font-size="13.5" font-weight="700" fill="#E8CE7A" text-anchor="end">QR 180.00</text>
<text x="44" y="362" font-size="10.5" fill="#64748B">tap to open the note sheet</text>
<circle cx="352" cy="362" r="9" fill="#F43F5E"/>
<text x="352" y="366" font-size="11" font-weight="800" fill="#fff" text-anchor="middle">2</text>
<rect x="26" y="382" width="348" height="58" rx="15" fill="rgba(255,255,255,0.045)" stroke="rgba(255,255,255,0.075)"/>
<text x="44" y="408" font-size="12.8" font-weight="600" fill="#E2E8F0">Supplier invoice past Net 30</text>
<text x="356" y="408" font-size="13.5" font-weight="700" fill="#E8CE7A" text-anchor="end">QR 8,940.00</text>
<text x="44" y="428" font-size="10.5" fill="#64748B">tap to open the note sheet</text>
<circle cx="352" cy="428" r="9" fill="#F43F5E"/>
<text x="352" y="432" font-size="11" font-weight="800" fill="#fff" text-anchor="middle">1</text>
<rect x="26" y="448" width="348" height="58" rx="15" fill="rgba(255,255,255,0.045)" stroke="rgba(255,255,255,0.075)"/>
<text x="44" y="474" font-size="12.8" font-weight="600" fill="#E2E8F0">Maintenance — Lusail AC unit</text>
<text x="356" y="474" font-size="13.5" font-weight="700" fill="#E8CE7A" text-anchor="end">QR 1,450.00</text>
<text x="44" y="494" font-size="10.5" fill="#64748B">tap to open the note sheet</text>
<rect x="26" y="514" width="348" height="58" rx="15" fill="rgba(255,255,255,0.045)" stroke="rgba(255,255,255,0.075)"/>
<text x="44" y="540" font-size="12.8" font-weight="600" fill="#E2E8F0">Void after payment · The Pearl</text>
<text x="356" y="540" font-size="13.5" font-weight="700" fill="#E8CE7A" text-anchor="end">QR 96.00</text>
<text x="44" y="560" font-size="10.5" fill="#64748B">tap to open the note sheet</text>
<circle cx="352" cy="560" r="9" fill="#F43F5E"/>
<text x="352" y="564" font-size="11" font-weight="800" fill="#fff" text-anchor="middle">1</text>
<rect x="26" y="580" width="348" height="58" rx="15" fill="rgba(255,255,255,0.045)" stroke="rgba(255,255,255,0.075)"/>
<text x="44" y="606" font-size="12.8" font-weight="600" fill="#E2E8F0">Staff leave request — Fatima S.</text>
<text x="44" y="626" font-size="10.5" fill="#64748B">tap to open the note sheet</text>
<circle cx="352" cy="626" r="9" fill="#F59E0B"/>
<text x="352" y="630" font-size="11" font-weight="800" fill="#fff" text-anchor="middle">1</text>
<rect x="26" y="784" width="348" height="1" fill="rgba(255,255,255,0.09)"/>
<text x="84" y="822" font-size="19" fill="#64748B" text-anchor="middle">◔</text>
<text x="84" y="842" font-size="10.5" font-weight="600" fill="#64748B" text-anchor="middle">Sales</text>
<text x="200" y="822" font-size="19" fill="#E8CE7A" text-anchor="middle">✉</text>
<text x="200" y="842" font-size="10.5" font-weight="600" fill="#E8CE7A" text-anchor="middle">Inbox</text>
<text x="316" y="822" font-size="19" fill="#64748B" text-anchor="middle">★</text>
<text x="316" y="842" font-size="10.5" font-weight="600" fill="#64748B" text-anchor="middle">Reviews</text>
</svg>