<svg xmlns="http://www.w3.org/2000/svg" viewBox="0 0 420 880" width="420" height="880" font-family="-apple-system, BlinkMacSystemFont, &quot;SF Pro Text&quot;, &quot;Helvetica Neue&quot;, sans-serif" font-variant-numeric="tabular-nums">
<title>The MiM till on a phone — the dine-in check for table 4, the allergy row, totals and the payment routes</title>
<rect x="0" y="0" width="420" height="880" fill="#FFFFFF"/>
<text x="16" y="36" font-size="19" font-weight="700" fill="#16161D">T-04 · 4 covers</text>
<text x="16" y="56" font-size="12" fill="#62626E">Fatima S. · Al Sadd · check #1847</text>
<rect x="325.85" y="22" width="78.15" height="30" rx="15" fill="#5B3FE0"/>
<text x="364.92" y="41.62" font-size="13" font-weight="700" fill="#FFFFFF" text-anchor="middle">Dine-in</text>
<rect x="16" y="76" width="186" height="112" rx="26" fill="#F2F2F6"/>
<circle cx="109" cy="110" r="20" fill="none" stroke="#D9D9E3" stroke-width="2"/>
<circle cx="109" cy="110" r="10.4" fill="none" stroke="#D9D9E3" stroke-width="2"/>
<text x="30" y="152" font-size="12.5" font-weight="600" fill="#16161D">Ribeye 300g</text>
<text x="30" y="174" font-size="15" font-weight="700" fill="#5B3FE0">128.00</text>
<rect x="218" y="76" width="186" height="112" rx="26" fill="#F2F2F6"/>
<circle cx="311" cy="110" r="20" fill="none" stroke="#D9D9E3" stroke-width="2"/>
<circle cx="311" cy="110" r="10.4" fill="none" stroke="#D9D9E3" stroke-width="2"/>
<text x="232" y="152" font-size="12.5" font-weight="600" fill="#16161D">Mixed grill</text>
<text x="232" y="174" font-size="15" font-weight="700" fill="#5B3FE0">210.00</text>
<rect x="16" y="196" width="186" height="112" rx="26" fill="#F2F2F6"/>
<circle cx="109" cy="230" r="20" fill="none" stroke="#D9D9E3" stroke-width="2"/>
<circle cx="109" cy="230" r="10.4" fill="none" stroke="#D9D9E3" stroke-width="2"/>
<text x="30" y="272" font-size="12.5" font-weight="600" fill="#16161D">Shish tawook</text>
<text x="30" y="294" font-size="15" font-weight="700" fill="#5B3FE0">78.00</text>
<rect x="218" y="196" width="186" height="112" rx="26" fill="#F2F2F6"/>
<circle cx="311" cy="230" r="20" fill="none" stroke="#D9D9E3" stroke-width="2"/>
<circle cx="311" cy="230" r="10.4" fill="none" stroke="#D9D9E3" stroke-width="2"/>
<text x="232" y="272" font-size="12.5" font-weight="600" fill="#16161D">Kofta</text>
<text x="232" y="294" font-size="15" font-weight="700" fill="#5B3FE0">82.00</text>
<rect x="355.3" y="204" width="38.7" height="18" rx="9" fill="#FCE6DA"/>
<text x="374.65" y="216.55" font-size="10" font-weight="700" fill="#9A3412" text-anchor="middle">86'd</text>
<rect x="16" y="324" width="388" height="470" rx="26" fill="#F2F2F6"/>
<text x="32" y="352" font-size="15" font-weight="600" fill="#16161D">The check</text>
<rect x="32" y="366" width="356" height="46" rx="16" fill="#FFFFFF"/>
<text x="44" y="385.44" font-size="12.5" font-weight="600" fill="#16161D">2 × Ribeye 300g</text>
<text x="376" y="385.44" font-size="12.5" font-weight="700" fill="#16161D" text-anchor="end">256.00</text>
<text x="56" y="402.9" font-size="11" fill="#5B3FE0">↳ medium rare</text>
<rect x="32" y="415" width="356" height="30" rx="16" fill="#FFFFFF"/>
<text x="44" y="434.44" font-size="12.5" font-weight="600" fill="#16161D">1 × Mixed grill</text>
<text x="376" y="434.44" font-size="12.5" font-weight="700" fill="#16161D" text-anchor="end">210.00</text>
<rect x="32" y="448" width="356" height="46" rx="16" fill="#FFFFFF"/>
<text x="44" y="467.44" font-size="12.5" font-weight="600" fill="#16161D">4 × Shish tawook</text>
<text x="376" y="467.44" font-size="12.5" font-weight="700" fill="#16161D" text-anchor="end">312.00</text>
<text x="56" y="484.9" font-size="11" fill="#5B3FE0">↳ no garlic</text>
<rect x="32" y="497" width="356" height="30" rx="16" fill="#FFFFFF"/>
<text x="44" y="516.44" font-size="12.5" font-weight="600" fill="#16161D">4 × Soft drink</text>
<text x="376" y="516.44" font-size="12.5" font-weight="700" fill="#16161D" text-anchor="end">48.00</text>
<rect x="32" y="526" width="356" height="52" rx="16" fill="#FFF0E6"/>
<g transform="translate(44 538) scale(0.58)" fill="none" stroke="#9A3412" stroke-width="1.9" stroke-linecap="round" stroke-linejoin="round"><path d="M10.29 3.86 1.82 18a2 2 0 0 0 1.71 3h16.94a2 2 0 0 0 1.71-3L13.71 3.86a2 2 0 0 0-3.42 0z M12 9v4 M12 17h.01"/></g>
<text x="64" y="550" font-size="12.5" font-weight="700" fill="#9A3412">Allergy asked — table 4</text>
<text x="44" y="570" font-size="11.5" fill="#9A3412">Nuts · Sesame — the kitchen has it too</text>
<text x="32" y="604.44" font-size="12.5" fill="#62626E">Subtotal</text>
<text x="388" y="604.44" font-size="12.5" font-weight="600" fill="#16161D" text-anchor="end">826.00</text>
<text x="32" y="626.44" font-size="12.5" fill="#62626E">Service 10%</text>
<text x="388" y="626.44" font-size="12.5" font-weight="600" fill="#16161D" text-anchor="end">82.60</text>
<rect x="32" y="638" width="356" height="44" rx="16" fill="#EEEAFD"/>
<text x="44" y="664.97" font-size="14" font-weight="700" fill="#5B3FE0">Total</text>
<text x="376" y="667.81" font-size="22" font-weight="700" fill="#5B3FE0" text-anchor="end">908.60</text>
<text x="32" y="700" font-size="12" font-weight="600" fill="#62626E">Take payment</text>
<rect x="32" y="708" width="170" height="38" rx="19" fill="#5B3FE0"/>
<text x="117" y="731.26" font-size="12" font-weight="600" fill="#FFFFFF" text-anchor="middle">Cash</text>
<rect x="218" y="708" width="170" height="38" rx="19" fill="#FFFFFF"/>
<text x="303" y="731.26" font-size="12" font-weight="600" fill="#16161D" text-anchor="middle">Card</text>
<rect x="32" y="752" width="170" height="38" rx="19" fill="#FFFFFF"/>
<text x="117" y="775.26" font-size="12" font-weight="600" fill="#16161D" text-anchor="middle">WITHSTAND App</text>
<rect x="218" y="752" width="170" height="38" rx="19" fill="#FFFFFF"/>
<text x="303" y="775.26" font-size="12" font-weight="600" fill="#16161D" text-anchor="middle">Talabat</text>
<text x="210" y="862" font-size="10.5" fill="#62626E" text-anchor="middle">Every line is already in the P&amp;L, the stock ledger and the day close.</text>
</svg>
